<?xml version="1.0" encoding="UTF-8"?>
<svg version="1.1" xmlns="http://www.w3.org/2000/svg" width="512" height="512">
<path d="M0 0 C1.20378548 -0.01043099 2.40757095 -0.02086198 3.64783478 -0.03160906 C4.98531837 -0.02296064 6.32279955 -0.01393401 7.66027832 -0.00457001 C9.07981761 -0.00917763 10.49935214 -0.01552962 11.91887665 -0.02347898 C15.82438754 -0.04021479 19.7295087 -0.03190688 23.63502121 -0.01953411 C27.84504622 -0.01050322 32.05500307 -0.02444357 36.26501465 -0.0354538 C44.51427726 -0.05326464 52.76339452 -0.04938765 61.01266289 -0.03780323 C67.71544465 -0.02877925 74.41818559 -0.02754042 81.12097168 -0.0318985 C82.07399909 -0.03251143 83.02702651 -0.03312436 84.00893354 -0.03375587 C85.9448325 -0.03503474 87.88073144 -0.03633159 89.81663036 -0.03764623 C107.98070128 -0.04905954 126.14469152 -0.03592656 144.3087492 -0.01444477 C159.90317953 0.00342689 175.49749077 0.000323 191.09191895 -0.01811981 C209.18983167 -0.03951327 227.28767363 -0.04796084 245.38559723 -0.03567076 C247.31447855 -0.03439653 249.24335987 -0.03313904 251.17224121 -0.0318985 C252.59590791 -0.03097285 252.59590791 -0.03097285 254.04833555 -0.03002849 C260.74509088 -0.02657101 267.44180142 -0.03241249 274.1385498 -0.04181671 C282.29677774 -0.05302116 290.45485168 -0.05002948 298.6130619 -0.02869374 C302.77761946 -0.01816229 306.94192003 -0.01409691 311.10647583 -0.02729034 C314.91610992 -0.03917707 318.72524792 -0.03271391 322.53483677 -0.01138014 C323.91566253 -0.00689817 325.29652987 -0.00921599 326.67732906 -0.01888329 C328.54926179 -0.03098755 330.42131131 -0.01622032 332.29321289 0 C333.33451607 0.00064941 334.37581924 0.00129882 335.44867706 0.00196791 C338.84410611 0.63299138 340.03050971 1.82935368 342.14660645 4.50336456 C342.62762451 6.65479279 342.62762451 6.65479279 342.60070801 8.99652863 C342.60025482 10.31744507 342.60025482 10.31744507 342.59979248 11.66504669 C342.57914734 12.60684784 342.5585022 13.54864899 342.53723145 14.51898956 C342.53157166 15.48995575 342.52591187 16.46092194 342.52008057 17.46131134 C342.49770956 20.55916626 342.44751117 23.6558599 342.39660645 26.75336456 C342.37654241 28.85491035 342.35829147 30.95647428 342.34191895 33.05805206 C342.29784225 38.20693626 342.22880903 43.3549536 342.14660645 48.50336456 C343.02642181 48.49448212 343.90623718 48.48559967 344.81271362 48.47644806 C353.13888214 48.39601496 361.46491855 48.33525493 369.79138756 48.29611588 C374.07125921 48.27531697 378.35080754 48.24714187 382.63049316 48.20160675 C386.76727055 48.15787189 390.90373862 48.13416969 395.04072952 48.12385559 C396.61226896 48.11651344 398.18379312 48.1021769 399.75519943 48.08044434 C411.07776972 47.93020263 420.9427006 48.70030627 429.61535645 56.80023956 C435.20244199 63.01444695 438.39014754 69.94231729 438.40666866 78.36910152 C438.41726705 80.10265114 438.41726705 80.10265114 438.42807955 81.87122196 C438.42566446 83.131417 438.42324938 84.39161204 438.42076111 85.68999481 C438.42521583 87.04979467 438.43053064 88.40959193 438.43662983 89.7693854 C438.45079307 93.5008111 438.45247344 97.23215345 438.45203292 100.96360219 C438.45368268 104.99042359 438.46675244 109.01721081 438.47822571 113.04401398 C438.50106564 121.84810358 438.50899571 130.65216907 438.51405215 139.45628428 C438.51731132 144.95779132 438.52383526 150.45929137 438.53105354 155.96079445 C438.55062067 171.20389169 438.56702338 186.44698244 438.56993008 201.69009304 C438.57011765 202.66538821 438.57030522 203.64068337 438.57049847 204.64553294 C438.57086471 206.62257485 438.57122841 208.59961675 438.57158958 210.57665866 C438.57177239 211.55802092 438.5719552 212.53938319 438.57214355 213.5504837 C438.57241438 215.02433244 438.57241438 215.02433244 438.57269067 216.5279559 C438.57622929 232.43485672 438.60323158 248.34162191 438.64064144 264.24847572 C438.67877486 280.59437473 438.69808794 296.94020654 438.69838959 313.28615099 C438.69897314 322.45782007 438.70739861 331.62932749 438.73638725 340.80095482 C438.76096891 348.61407531 438.76813866 356.42697521 438.75313973 364.24012398 C438.7459976 368.22183433 438.74671035 372.20310971 438.76955032 376.18477058 C438.79031636 379.84015844 438.78737866 383.49478184 438.76667548 387.150163 C438.76159176 389.07740877 438.78082444 391.00467321 438.80133718 392.93181652 C438.67352606 406.40181587 434.69220507 417.9886459 426.14660645 428.50336456 C425.52398926 429.33480988 424.90137207 430.16625519 424.2598877 431.02289581 C416.07811563 440.62626968 402.49166601 447.70374222 389.89333177 448.7817353 C386.07178233 448.89195438 382.25623728 448.90873736 378.43374634 448.89104462 C376.95698546 448.89522338 375.48022779 448.90070387 374.00347602 448.90736443 C369.9674088 448.92176666 365.93154668 448.91759075 361.89546847 448.91019762 C357.53407315 448.90545525 353.17272152 448.91798523 348.81134033 448.92821503 C340.27549078 448.94538754 331.73971489 448.94624624 323.20385255 448.94100212 C316.26387339 448.93695625 309.32391596 448.93840893 302.38393784 448.94375038 C300.90079821 448.94487301 300.90079821 448.94487301 299.38769617 448.94601833 C297.37885428 448.94754985 295.37001239 448.9490882 293.36117052 448.95063329 C274.53396653 448.96435278 255.70680413 448.95892456 236.87960111 448.94744808 C219.66794232 448.93751661 202.45639105 448.95045588 185.24474885 448.97438227 C167.55740904 448.99878407 149.87011928 449.00837846 132.18276298 449.00172955 C122.25842848 448.99823969 112.33417664 449.00045398 102.40985489 449.01798058 C93.96142397 449.03271606 85.51313394 449.0333204 77.06470574 449.01590966 C72.75734461 449.00740833 68.45023501 449.00522881 64.14288712 449.02056122 C60.19369138 449.0344443 56.24496182 449.02959914 52.2957928 449.01032198 C50.87327792 449.0065727 49.45072537 449.00945283 48.02824415 449.01993363 C33.00501978 449.12268343 18.17162242 444.80926877 6.89660645 434.37445831 C-2.99607161 423.79724227 -9.96585143 411.49450194 -9.98761463 396.79101562 C-9.98996686 396.11393753 -9.99231909 395.43685944 -9.9947426 394.73926383 C-10.0014239 392.46005317 -10.00097465 390.18089963 -10.00056458 387.90167999 C-10.00386371 386.25528231 -10.00758938 384.60888544 -10.01170605 382.9624896 C-10.02172793 378.43002028 -10.02544312 373.8975642 -10.02809536 369.36508536 C-10.03199766 364.48022889 -10.0415758 359.59538292 -10.05030823 354.71053314 C-10.07007097 342.9123062 -10.08013694 331.1140784 -10.08903602 319.31583905 C-10.09341775 313.76355511 -10.09878472 308.21127213 -10.10402489 302.65898895 C-10.12103419 284.21021726 -10.13553056 265.76144617 -10.14277363 247.31266785 C-10.14468359 242.52515919 -10.14660392 237.73765054 -10.14855957 232.95014191 C-10.14904331 231.76019786 -10.14952705 230.57025381 -10.15002545 229.34425086 C-10.15833409 210.0478296 -10.1836864 190.75147016 -10.21614025 171.45507592 C-10.24916719 151.65711146 -10.26721828 131.85917848 -10.27041787 112.06118631 C-10.27258662 100.93981752 -10.28138894 89.81853897 -10.30687904 78.69719696 C-10.32852616 69.23062476 -10.33666596 59.76416473 -10.32691226 50.29757059 C-10.32235061 45.46467362 -10.3243616 40.6320084 -10.34367371 35.79914284 C-10.3611851 31.37891653 -10.36040646 26.95909311 -10.34477641 22.53886324 C-10.34238197 20.93595643 -10.34681802 19.33302258 -10.35860506 17.73015732 C-10.37359373 15.5581795 -10.3641445 13.38765355 -10.34837818 11.2157135 C-10.34935499 10.00733338 -10.3503318 8.79895326 -10.35133821 7.55395555 C-9.85339355 4.50336456 -9.85339355 4.50336456 -8.18829411 2.11530304 C-5.24796847 0.08539902 -3.55931992 0.00221977 0 0 Z M6.14660645 16.50336456 C6.08833639 83.03851829 6.08833639 83.03851829 6.0489502 149.57367706 C6.04503452 158.54535682 6.04099358 167.51703652 6.03674316 176.48871613 C6.03621567 177.61315069 6.03568817 178.73758526 6.03514469 179.89609361 C6.02644903 198.04285728 6.01068301 216.18960827 5.99230085 234.33636442 C5.97358958 252.96354598 5.96248712 271.59072091 5.95842946 290.21791148 C5.95568695 301.7093742 5.94702874 313.20080105 5.93077351 324.69225273 C5.9201915 332.57523563 5.91700858 340.45820004 5.91960369 348.34118953 C5.92088308 352.88739893 5.9189389 357.43354572 5.9081955 361.97974396 C5.89841851 366.14755745 5.89800025 370.31526658 5.90480866 374.48308501 C5.90564937 375.98530952 5.90315014 377.48754071 5.89684008 378.9897522 C5.83188072 395.41900331 7.26439207 409.05168792 18.90441895 421.46039581 C30.31522675 431.85735135 43.61607275 432.66167526 58.3079834 432.62361908 C60.12520842 432.62490072 60.12520842 432.62490072 61.97914505 432.62620825 C65.32455657 432.62756615 68.66990904 432.6244577 72.01531339 432.61943018 C75.6293851 432.61509885 79.2434551 432.61657401 82.85752869 432.61733246 C89.1134382 432.61785599 95.36933726 432.61472698 101.62524414 432.60909462 C110.67015826 432.60095655 119.71506735 432.59836203 128.75998473 432.59710663 C143.43589926 432.59491974 158.11180822 432.58826948 172.78771973 432.57880402 C187.04130017 432.56962052 201.29487911 432.56254427 215.54846191 432.5582962 C216.86705478 432.55790212 216.86705478 432.55790212 218.21228588 432.55750007 C222.62242181 432.556195 227.03255776 432.5549313 231.44269371 432.55368817 C268.01066855 432.54332685 304.57863706 432.52571839 341.14660645 432.50336456 C339.65253101 429.406561 337.94839017 426.90521107 335.83410645 424.19086456 C327.84000873 412.73680355 326.40405194 400.61140622 326.50737 387.00753021 C326.50104271 385.39827695 326.49253036 383.78903107 326.48204976 382.1797995 C326.45974092 377.80110813 326.4680349 373.42294977 326.48173535 369.04424322 C326.49105573 364.30617613 326.47141446 359.56821428 326.45541382 354.83017731 C326.43164649 346.63560844 326.42594675 338.44118991 326.43276024 330.24659157 C326.44258469 318.39882946 326.42478533 306.55123334 326.40039293 294.70349812 C326.36155484 275.4781732 326.34484344 256.25289596 326.34216309 237.02753448 C326.33951279 218.3595408 326.32631254 199.69160306 326.29919434 181.02362823 C326.29751682 179.85987453 326.2958393 178.69612082 326.29411095 177.49710184 C326.28090834 168.39484954 326.26709676 159.29259818 326.25309289 150.19034708 C326.18468911 105.62800835 326.16936666 61.06579514 326.14660645 16.50336456 C220.54660645 16.50336456 114.94660645 16.50336456 6.14660645 16.50336456 Z M342.14660645 64.50336456 C342.14660645 167.46336456 342.14660645 270.42336456 342.14660645 376.50336456 C352.70660645 376.50336456 363.26660645 376.50336456 374.14660645 376.50336456 C374.1546933 372.7125943 374.16278015 368.92182404 374.17111206 365.01618195 C374.24618779 330.25358525 374.33107371 295.49102359 374.42665806 260.72847703 C374.43917692 256.17231995 374.45160969 251.61616265 374.46398926 247.06000519 C374.46645525 246.15295678 374.46892125 245.24590837 374.47146197 244.31137365 C374.51118498 229.62484009 374.54393435 214.93829883 374.57410626 200.2517429 C374.60522096 185.18183578 374.64383046 170.11196131 374.6893965 155.04209089 C374.71727664 145.74329025 374.73931176 136.44451348 374.75386895 127.14568228 C374.76441157 120.76901418 374.7822346 114.39239231 374.80577348 108.01575905 C374.81913913 104.33687083 374.82930353 100.65804741 374.83082008 96.97913361 C374.8325493 92.98814342 374.84961366 88.99736386 374.86813354 85.00641632 C374.86619881 83.84687077 374.86426408 82.68732522 374.86227071 81.49264193 C374.86973621 80.41776128 374.8772017 79.34288064 374.88489342 78.23542786 C374.88717174 77.31498578 374.88945006 76.3945437 374.89179742 75.44620943 C375.14660645 72.50336456 375.14660645 72.50336456 377.14660645 64.50336456 C365.59660645 64.50336456 354.04660645 64.50336456 342.14660645 64.50336456 Z M395.14660645 69.50336456 C390.91487769 74.8788038 390.02374199 79.21673248 390.01632118 85.92037392 C390.01269683 87.0013649 390.00907249 88.08235588 390.00533831 89.19610417 C390.00640656 90.37790568 390.00747482 91.55970719 390.00857544 92.77732086 C390.00434352 94.66715519 390.00434352 94.66715519 390.00002611 96.59516799 C389.99228265 100.08976816 389.99065422 103.58434868 389.98997498 107.07895637 C389.98813361 110.84856496 389.98052601 114.61816211 389.97349548 118.38776398 C389.96197541 124.91872896 389.95372839 131.44969137 389.94737625 137.9806633 C389.93705033 148.29862165 389.91648822 158.6165478 389.89425659 168.93448639 C389.88677726 172.46399106 389.87936352 175.99349587 389.87196922 179.52300072 C389.87011866 180.40500298 389.86826809 181.28700524 389.86636145 182.19573484 C389.84543919 192.23300803 389.826607 202.27028476 389.80871582 212.30756378 C389.80707764 213.22505869 389.80543946 214.1425536 389.80375163 215.08785139 C389.7774404 229.97144541 389.75881043 244.85504192 389.74212392 259.73864938 C389.72472209 275.01322908 389.69590003 290.2877599 389.65723455 305.56230056 C389.63380252 314.98814328 389.61983712 324.41390633 389.61790691 333.83977841 C389.6158025 340.29346465 389.60291512 346.74707149 389.58142759 353.20072211 C389.56936428 356.92766528 389.56226993 360.6544508 389.56814003 364.38141251 C389.57438049 368.41555611 389.55767558 372.44927242 389.53860474 376.48337555 C389.54689928 378.26276998 389.54689928 378.26276998 389.55536139 380.07811177 C389.54652155 381.15388726 389.53768171 382.22966274 389.52857399 383.33803749 C389.52721746 384.26981886 389.52586093 385.20160023 389.5244633 386.1616174 C389.07569493 388.94283477 388.37392813 389.83070186 386.14660645 391.50336456 C384.15339661 391.90209198 384.15339661 391.90209198 381.85876465 391.93573761 C380.99809891 391.95553177 380.13743317 391.97532593 379.25068665 391.99571991 C377.86305367 392.00530479 377.86305367 392.00530479 376.4473877 392.01508331 C375.02211006 392.04201012 375.02211006 392.04201012 373.56803894 392.0694809 C370.53177332 392.12368349 367.49566578 392.1575116 364.45910645 392.19086456 C362.40114169 392.22402884 360.34319782 392.25851766 358.28527832 392.29438019 C353.23916825 392.37941576 348.19310588 392.44617954 343.14660645 392.50336456 C343.12714966 394.3945401 343.12714966 394.3945401 343.1072998 396.3239212 C343.10000351 397.03311203 343.09270721 397.74230286 343.08518982 398.47298431 C343.37373979 408.01219547 349.60313972 416.16602865 356.2130127 422.47602081 C365.20131379 430.04934785 374.68648394 432.40163611 386.2755127 431.88227081 C397.90983058 430.74349298 406.52066489 425.08157864 413.95910645 416.25336456 C422.05027175 405.23361042 422.29665541 392.89061316 422.28704834 379.757164 C422.29001946 378.48261036 422.29299058 377.20805672 422.29605174 375.89488024 C422.3040787 372.37303544 422.30590889 368.85121108 422.30664921 365.32935822 C422.30850719 361.52492299 422.31605802 357.72049818 422.32278442 353.91606903 C422.33633551 345.60628758 422.34238683 337.29651098 422.34679508 328.98672032 C422.34956178 323.79581491 422.35379979 318.60491135 422.35829926 313.41400719 C422.37048546 299.03379846 422.38078751 284.6535912 422.38417435 270.27337742 C422.38439391 269.35402773 422.38461348 268.43467805 422.3848397 267.48746928 C422.38505798 266.56596944 422.38527625 265.64446961 422.38550115 264.69504553 C422.38594461 262.82784784 422.38639117 260.96065015 422.38684082 259.09345245 C422.38706225 258.16726545 422.38728368 257.24107845 422.38751182 256.28682517 C422.39146182 241.2716505 422.4089249 226.2565243 422.43220034 211.24136836 C422.45591941 195.81527042 422.46837637 180.38919681 422.46954226 164.96308035 C422.47045847 156.30587364 422.47619751 147.64873018 422.49436188 138.99154091 C422.50977004 131.62226952 422.51487893 124.25308095 422.50662377 116.88379652 C422.50272042 113.12569402 422.50363158 109.36775828 422.51768112 105.60967636 C422.53278651 101.53184706 422.52454476 97.4543926 422.51409912 93.37654877 C422.52215553 92.19424543 422.53021193 91.01194209 422.53851247 89.79381138 C422.49995031 79.11349127 422.49995031 79.11349127 417.69467282 69.88568169 C412.95660361 65.81909101 409.74836121 65.147398 403.68566895 65.22602081 C399.92200242 65.637129 397.92870457 66.98622816 395.14660645 69.50336456 Z " fill="#000000" transform="translate(41.8533935546875,31.49663543701172)"/>
<path d="M0 0 C1.01331642 -0.00623996 2.02663284 -0.01247993 3.07065582 -0.01890898 C6.47637492 -0.03490224 9.88138459 -0.02220956 13.28710938 -0.00964355 C15.72453226 -0.01506184 18.16195186 -0.02218283 20.59936523 -0.03088379 C26.53855182 -0.04725601 32.47755321 -0.04482345 38.4167347 -0.03323323 C43.24309067 -0.02420413 48.06938996 -0.02297262 52.89575195 -0.02732849 C53.58234469 -0.02794142 54.26893743 -0.02855436 54.976336 -0.02918586 C56.37108296 -0.03046475 57.7658299 -0.0317616 59.16057682 -0.03307623 C72.24288806 -0.04448575 85.32508724 -0.03136253 98.4073801 -0.00987476 C109.63557516 0.0079966 120.86360481 0.00489259 132.09179688 -0.0135498 C145.12689692 -0.03495 158.1618987 -0.04338708 171.19701385 -0.03110075 C172.58666482 -0.02982654 173.9763158 -0.02856905 175.3659668 -0.02732849 C176.04972334 -0.02671139 176.73347989 -0.02609429 177.43795633 -0.02545848 C182.25919863 -0.02200302 187.08037867 -0.02783814 191.90161133 -0.0372467 C198.38917798 -0.04962865 204.87650539 -0.04082857 211.36404419 -0.01766968 C213.74894693 -0.01236815 216.13387591 -0.01392087 218.51876831 -0.02272034 C221.76677765 -0.033602 225.01377446 -0.02000071 228.26171875 0 C229.68758175 -0.01338433 229.68758175 -0.01338433 231.14225006 -0.02703905 C234.98243675 0.01903628 237.40125588 0.06037411 240.71593475 2.09369659 C242.65770525 5.40687385 242.63430476 7.80669061 242.63879395 11.64367676 C242.64815389 12.72262774 242.64815389 12.72262774 242.65770292 13.8233757 C242.67366082 16.23418688 242.66101854 18.64399086 242.6484375 21.05480957 C242.65385741 22.78288361 242.66097932 24.51095303 242.66967773 26.23901367 C242.68792975 30.93322555 242.68083585 35.62708621 242.66816139 40.32130432 C242.65804344 45.23085486 242.66742372 50.14037506 242.67370605 55.04992676 C242.68098597 63.29509894 242.67138572 71.54012788 242.65234375 79.78527832 C242.63057435 89.32160802 242.63762548 98.85759567 242.65964937 108.39391708 C242.67779355 116.57746181 242.6803665 124.76090348 242.6698947 132.94446182 C242.66365436 137.83396258 242.66283896 142.7233025 242.67604065 147.61279297 C242.68758425 152.20936619 242.67960081 156.80549786 242.65646362 161.40202332 C242.65116854 163.09029914 242.65270396 164.77861203 242.66151428 166.46687317 C242.67242238 168.76915013 242.6587655 171.07000632 242.63879395 173.37219238 C242.63653179 175.3056955 242.63653179 175.3056955 242.63422394 177.27825928 C242.13085938 180.50793457 242.13085938 180.50793457 240.71593475 182.92217255 C236.6960116 185.38811282 232.891128 185.05932461 228.26171875 185.01586914 C227.24840233 185.0221091 226.23508591 185.02834907 225.19106293 185.03477812 C221.78534383 185.05077138 218.38033416 185.0380787 214.97460938 185.0255127 C212.53718649 185.03093098 210.09976689 185.03805197 207.66235352 185.04675293 C201.72316693 185.06312515 195.78416554 185.06069259 189.84498405 185.04910237 C185.01862808 185.04007327 180.19232879 185.03884176 175.3659668 185.04319763 C174.67937406 185.04381056 173.99278132 185.0444235 173.28538275 185.045055 C171.89063579 185.04633389 170.49588885 185.04763074 169.10114193 185.04894537 C156.01883069 185.06035489 142.93663151 185.04723168 129.85433865 185.0257439 C118.62614359 185.00787254 107.39811394 185.01097655 96.16992188 185.02941895 C83.13482183 185.05081914 70.09982005 185.05925622 57.0647049 185.04696989 C55.67505393 185.04569568 54.28540295 185.0444382 52.89575195 185.04319763 C52.21199541 185.04258053 51.52823886 185.04196343 50.82376242 185.04132763 C46.00252012 185.03787216 41.18134008 185.04370728 36.36010742 185.05311584 C29.87254077 185.06549779 23.38521336 185.05669771 16.89767456 185.03353882 C14.51277182 185.02823729 12.12784284 185.02979001 9.74295044 185.03858948 C6.4949411 185.04947114 3.24794429 185.03586985 0 185.01586914 C-0.95057533 185.02479203 -1.90115067 185.03371491 -2.88053131 185.04290819 C-6.720718 184.99683286 -9.13953713 184.95549503 -12.454216 182.92217255 C-14.3959865 179.60899529 -14.37258601 177.20917853 -14.3770752 173.37219238 C-14.38331516 172.65289173 -14.38955512 171.93359108 -14.39598417 171.19249344 C-14.41194207 168.78168226 -14.39929979 166.37187828 -14.38671875 163.96105957 C-14.39213866 162.23298553 -14.39926057 160.50491611 -14.40795898 158.77685547 C-14.426211 154.08264359 -14.4191171 149.38878293 -14.40644264 144.69456482 C-14.39632469 139.78501428 -14.40570497 134.87549408 -14.4119873 129.96594238 C-14.41926722 121.7207702 -14.40966697 113.47574126 -14.390625 105.23059082 C-14.3688556 95.69426112 -14.37590673 86.15827347 -14.39793062 76.62195206 C-14.4160748 68.43840733 -14.41864775 60.25496566 -14.40817595 52.07140732 C-14.40193561 47.18190656 -14.40112021 42.29256664 -14.4143219 37.40307617 C-14.4258655 32.80650295 -14.41788206 28.21037128 -14.39474487 23.61384583 C-14.38944979 21.92557 -14.39098521 20.23725711 -14.39979553 18.54899597 C-14.41070363 16.24671901 -14.39704675 13.94586282 -14.3770752 11.64367676 C-14.37556709 10.35467468 -14.37405899 9.06567261 -14.37250519 7.73760986 C-13.86914062 4.50793457 -13.86914062 4.50793457 -12.454216 2.09369659 C-8.43429285 -0.37224368 -4.62940925 -0.04345547 0 0 Z M2.13085938 16.50793457 C2.13085938 66.66793457 2.13085938 116.82793457 2.13085938 168.50793457 C76.05085938 168.50793457 149.97085938 168.50793457 226.13085938 168.50793457 C226.13085938 118.34793457 226.13085938 68.18793457 226.13085938 16.50793457 C152.21085937 16.50793457 78.29085937 16.50793457 2.13085938 16.50793457 Z " fill="#000000" transform="translate(93.869140625,79.4920654296875)"/>
<path d="M0 0 C0.94210327 -0.0112793 1.88420654 -0.02255859 2.8548584 -0.03417969 C3.88147583 -0.02608276 4.90809326 -0.01798584 5.96582031 -0.00964355 C7.05237915 -0.01665283 8.13893799 -0.02366211 9.25842285 -0.03088379 C12.85385616 -0.04850411 16.44850385 -0.03682601 20.04394531 -0.02331543 C22.53971508 -0.02600916 25.03548383 -0.02989059 27.53125 -0.03491211 C32.76342807 -0.04081264 37.99540139 -0.03260689 43.22753906 -0.0135498 C49.27391543 0.00821888 55.31975227 0.00116733 61.36611557 -0.02085543 C67.18607497 -0.0412039 73.00582952 -0.03903837 78.82580566 -0.02732849 C81.30098547 -0.02465698 83.776179 -0.02794579 86.25134277 -0.0372467 C89.7086249 -0.04738652 93.16486588 -0.03194562 96.62207031 -0.00964355 C97.64868774 -0.01774048 98.67530518 -0.0258374 99.73303223 -0.03417969 C101.14618713 -0.01726074 101.14618713 -0.01726074 102.58789062 0 C103.40493469 0.0015081 104.22197876 0.0030162 105.06378174 0.00457001 C108.22719357 0.71857567 109.38147336 1.91343079 111.29394531 4.50793457 C111.79730988 7.36279297 111.79730988 7.36279297 111.80187988 10.73254395 C111.81315918 12.01121338 111.82443848 13.28988281 111.83605957 14.6072998 C111.82828255 16.02209699 111.82008988 17.43689194 111.81152344 18.85168457 C111.81694423 20.34330936 111.82406665 21.8349288 111.83276367 23.32653809 C111.85100535 27.37616085 111.84392621 31.42537618 111.83124733 35.4750061 C111.82112395 39.71190493 111.83051116 43.94876875 111.83679199 48.18566895 C111.84407034 55.30096707 111.83447583 62.41609915 111.81542969 69.53137207 C111.7936605 77.75896257 111.80071175 85.9861566 111.82273531 94.21373749 C111.84088402 101.27627711 111.84345025 108.33869734 111.83298063 115.40125275 C111.82674276 119.62006632 111.82591805 123.8386935 111.83912659 128.05749512 C111.85067687 132.0237383 111.84267493 135.98947006 111.81954956 139.95565796 C111.81425799 141.41172435 111.81578397 142.86783374 111.82460022 144.32388306 C111.83551966 146.31034819 111.81940231 148.29690733 111.80187988 150.2833252 C111.80037178 151.39534302 111.79886368 152.50736084 111.79730988 153.65307617 C111.16879373 157.21773831 110.20259832 158.39597205 107.29394531 160.50793457 C105.06378174 161.01129913 105.06378174 161.01129913 102.58789062 161.01586914 C101.64578735 161.02714844 100.70368408 161.03842773 99.73303223 161.05004883 C98.70641479 161.0419519 97.67979736 161.03385498 96.62207031 161.0255127 C95.53551147 161.03252197 94.44895264 161.03953125 93.32946777 161.04675293 C89.73403446 161.06437325 86.13938678 161.05269515 82.54394531 161.03918457 C80.04817554 161.0418783 77.5524068 161.04575973 75.05664062 161.05078125 C69.82446256 161.05668178 64.59248923 161.04847603 59.36035156 161.02941895 C53.31397519 161.00765026 47.26813835 161.01470181 41.22177505 161.03672457 C35.40181565 161.05707304 29.58206111 161.05490751 23.76208496 161.04319763 C21.28690516 161.04052612 18.81171162 161.04381493 16.33654785 161.05311584 C12.87926572 161.06325566 9.42302474 161.04781476 5.96582031 161.0255127 C4.93920288 161.03360962 3.91258545 161.04170654 2.8548584 161.05004883 C1.91275513 161.03876953 0.97065186 161.02749023 0 161.01586914 C-0.81704407 161.01436104 -1.63408813 161.01285294 -2.47589111 161.01129913 C-5.63930295 160.29729347 -6.79358274 159.10243835 -8.70605469 156.50793457 C-9.20941925 153.65307617 -9.20941925 153.65307617 -9.21398926 150.2833252 C-9.22526855 149.00465576 -9.23654785 147.72598633 -9.24816895 146.40856934 C-9.24039192 144.99377215 -9.23219926 143.5789772 -9.22363281 142.16418457 C-9.2290536 140.67255978 -9.23617603 139.18094034 -9.24487305 137.68933105 C-9.26311473 133.63970829 -9.25603558 129.59049296 -9.2433567 125.54086304 C-9.23323333 121.30396421 -9.24262054 117.06710039 -9.24890137 112.8302002 C-9.25617972 105.71490207 -9.2465852 98.59976999 -9.22753906 91.48449707 C-9.20576988 83.25690657 -9.21282112 75.02971254 -9.23484468 66.80213165 C-9.25299339 59.73959203 -9.25555963 52.6771718 -9.24509001 45.61461639 C-9.23885213 41.39580282 -9.23802743 37.17717564 -9.25123596 32.95837402 C-9.26278624 28.99213084 -9.25478431 25.02639908 -9.23165894 21.06021118 C-9.22636737 19.60414479 -9.22789335 18.1480354 -9.23670959 16.69198608 C-9.24762903 14.70552095 -9.23151169 12.71896181 -9.21398926 10.73254395 C-9.21248116 9.62052612 -9.21097305 8.5085083 -9.20941925 7.36279297 C-8.2654883 2.00923933 -5.25202613 0.00969421 0 0 Z M7.29394531 16.50793457 C7.29394531 58.74793457 7.29394531 100.98793457 7.29394531 144.50793457 C36.33394531 144.50793457 65.37394531 144.50793457 95.29394531 144.50793457 C95.29394531 102.26793457 95.29394531 60.02793457 95.29394531 16.50793457 C66.25394531 16.50793457 37.21394531 16.50793457 7.29394531 16.50793457 Z " fill="#000000" transform="translate(224.7060546875,279.4920654296875)"/>
<path d="M0 0 C2.19503784 1.41404724 2.19503784 1.41404724 4 4 C4.60076024 7.30891588 4.54612081 10.58224316 4.51757812 13.9375 C4.5245874 14.94603027 4.53159668 15.95456055 4.53881836 16.99365234 C4.55643218 20.32938114 4.5447631 23.66426248 4.53125 27 C4.53394393 29.31640791 4.53782551 31.63281472 4.54284668 33.94921875 C4.54874634 38.80479698 4.54016338 43.66008096 4.52148438 48.515625 C4.49869496 54.74364646 4.51181548 60.97097845 4.53577423 67.19897461 C4.55021932 71.98247485 4.54563205 76.76581127 4.53526306 81.54931641 C4.53259223 83.84586671 4.535878 86.14243183 4.54518127 88.43896484 C4.55532527 91.6472114 4.53987483 94.85433706 4.51757812 98.0625 C4.52567505 99.01431152 4.53377197 99.96612305 4.54211426 100.94677734 C4.4596527 107.34226049 4.4596527 107.34226049 2.19284058 110.58595276 C-1.19279384 112.76916984 -4.17507773 112.75025077 -8 112 C-11.6184707 110.63441813 -14.95618103 108.84710114 -18.3515625 107.00390625 C-20.35786608 105.95988888 -22.36438338 104.91628214 -24.37109375 103.87304688 C-27.49523223 102.22434556 -30.61491995 100.56789035 -33.72998047 98.90209961 C-49.91644517 89.90990674 -49.91644517 89.90990674 -68 88 C-67.97905273 88.82725586 -67.95810547 89.65451172 -67.93652344 90.50683594 C-67.85338381 94.2544337 -67.80134469 98.00183749 -67.75 101.75 C-67.71648437 103.05195313 -67.68296875 104.35390625 -67.6484375 105.6953125 C-67.63554687 106.94570312 -67.62265625 108.19609375 -67.609375 109.484375 C-67.58842773 110.63647461 -67.56748047 111.78857422 -67.54589844 112.97558594 C-68.09481149 116.63146493 -69.116418 117.76793862 -72 120 C-74 120.53125 -74 120.53125 -76 120.5 C-76.66 120.5103125 -77.32 120.520625 -78 120.53125 C-80.96426881 119.7438661 -82.10007812 118.38833367 -84 116 C-84.45410156 112.88378906 -84.45410156 112.88378906 -84.390625 109.265625 C-84.37773437 107.97011719 -84.36484375 106.67460937 -84.3515625 105.33984375 C-84.31814366 103.97655176 -84.28428391 102.61327051 -84.25 101.25 C-84.22992707 99.87111936 -84.21167767 98.49221088 -84.1953125 97.11328125 C-84.14815448 93.74148256 -84.08234538 90.37109313 -84 87 C-84.94166016 86.85828369 -85.88332031 86.71656738 -86.85351562 86.57055664 C-93.29966514 85.40166687 -98.36575976 81.18142986 -102.375 76.125 C-108.44556271 67.12033198 -108.93648835 58.55390798 -108 48 C-106.03084609 39.42249907 -101.31075636 32.98692784 -94 28.1875 C-88.78448606 25.00386336 -84.57067069 23.83322252 -78.46875 24.39453125 C-57.07742917 25.94892331 -42.03856288 18.23044576 -23.54101562 8.13012695 C-22.57235565 7.6046225 -21.60369568 7.07911804 -20.60568237 6.53768921 C-18.7779448 5.53732989 -16.95971792 4.51931688 -15.15335083 3.48086548 C-9.81726132 0.52210672 -6.12361732 -0.94636228 0 0 Z M-20.7578125 25.28125 C-21.34554443 25.57612305 -21.93327637 25.87099609 -22.53881836 26.17480469 C-24.73641068 27.27883793 -26.93049556 28.38984162 -29.125 29.5 C-36.488125 33.2125 -36.488125 33.2125 -44 37 C-44 49.54 -44 62.08 -44 75 C-39.09125 77.475 -34.1825 79.95 -29.125 82.5 C-27.57699707 83.28310547 -26.02899414 84.06621094 -24.43408203 84.87304688 C-23.20881827 85.48859868 -21.98340528 86.10385355 -20.7578125 86.71875 C-20.12029053 87.04262695 -19.48276855 87.36650391 -18.82592773 87.70019531 C-15.57304793 89.43423361 -15.57304793 89.43423361 -12 90 C-12 67.56 -12 45.12 -12 22 C-15.25298089 22 -17.90907062 23.83401856 -20.7578125 25.28125 Z M-86.61328125 44.46484375 C-90.70232185 49.17587926 -91.35578775 52.41203334 -91.27734375 58.4609375 C-90.86623556 62.22460402 -89.5171364 64.21790187 -87 67 C-78.42057748 73.75401347 -71.47416509 72 -60 72 C-60 61.44 -60 50.88 -60 40 C-74.13852582 38.98232862 -74.13852582 38.98232862 -86.61328125 44.46484375 Z " fill="#000000" transform="translate(236,112)"/>
<path d="M0 0 C1.00853027 -0.00700928 2.01706055 -0.01401855 3.05615234 -0.02124023 C6.39188114 -0.03885406 9.72676248 -0.02718497 13.0625 -0.01367188 C15.37890791 -0.0163658 17.69531472 -0.02024739 20.01171875 -0.02526855 C24.86729698 -0.03116822 29.72258096 -0.02258526 34.578125 -0.00390625 C40.80614646 0.01888316 47.03347845 0.00576265 53.26147461 -0.01819611 C58.04497485 -0.0326412 62.82831127 -0.02805393 67.61181641 -0.01768494 C69.90836671 -0.0150141 72.20493183 -0.01829988 74.50146484 -0.02760315 C77.7097114 -0.03774714 80.91683706 -0.02229671 84.125 0 C85.55271729 -0.01214539 85.55271729 -0.01214539 87.00927734 -0.02453613 C93.43945009 0.05837271 93.43945009 0.05837271 96.65039062 2.42492676 C98.17562415 4.68522053 98.60471773 5.81564333 98.5625 8.51757812 C98.57796875 9.50757813 98.57796875 9.50757813 98.59375 10.51757812 C97.77143622 13.61334764 96.65975504 14.60332765 94.0625 16.51757812 C90.75626211 17.12830568 87.47912473 17.06368931 84.125 17.03515625 C83.11646973 17.04216553 82.10793945 17.0491748 81.06884766 17.05639648 C77.73311886 17.07401031 74.39823752 17.06234122 71.0625 17.04882812 C68.74609209 17.05152205 66.42968528 17.05540364 64.11328125 17.0604248 C59.25770302 17.06632447 54.40241904 17.05774151 49.546875 17.0390625 C43.31885354 17.01627309 37.09152155 17.0293936 30.86352539 17.05335236 C26.08002515 17.06779745 21.29668873 17.06321018 16.51318359 17.05284119 C14.21663329 17.05017035 11.92006817 17.05345613 9.62353516 17.0627594 C6.4152886 17.07290339 3.20816294 17.05745296 0 17.03515625 C-0.95181152 17.04325317 -1.90362305 17.0513501 -2.88427734 17.05969238 C-9.31445009 16.97678354 -9.31445009 16.97678354 -12.52539062 14.61022949 C-14.05062415 12.34993572 -14.47971773 11.21951292 -14.4375 8.51757812 C-14.45296875 7.52757812 -14.45296875 7.52757812 -14.46875 6.51757812 C-12.53367962 -0.76739273 -6.18858895 -0.05264544 0 0 Z " fill="#000000" transform="translate(93.9375,415.482421875)"/>
<path d="M0 0 C1.00853027 -0.00700928 2.01706055 -0.01401855 3.05615234 -0.02124023 C6.39188114 -0.03885406 9.72676248 -0.02718497 13.0625 -0.01367188 C15.37890791 -0.0163658 17.69531472 -0.02024739 20.01171875 -0.02526855 C24.86729698 -0.03116822 29.72258096 -0.02258526 34.578125 -0.00390625 C40.80614646 0.01888316 47.03347845 0.00576265 53.26147461 -0.01819611 C58.04497485 -0.0326412 62.82831127 -0.02805393 67.61181641 -0.01768494 C69.90836671 -0.0150141 72.20493183 -0.01829988 74.50146484 -0.02760315 C77.7097114 -0.03774714 80.91683706 -0.02229671 84.125 0 C85.55271729 -0.01214539 85.55271729 -0.01214539 87.00927734 -0.02453613 C93.43945009 0.05837271 93.43945009 0.05837271 96.65039062 2.42492676 C98.17562415 4.68522053 98.60471773 5.81564333 98.5625 8.51757812 C98.57796875 9.50757813 98.57796875 9.50757813 98.59375 10.51757812 C97.77143622 13.61334764 96.65975504 14.60332765 94.0625 16.51757812 C90.75626211 17.12830568 87.47912473 17.06368931 84.125 17.03515625 C83.11646973 17.04216553 82.10793945 17.0491748 81.06884766 17.05639648 C77.73311886 17.07401031 74.39823752 17.06234122 71.0625 17.04882812 C68.74609209 17.05152205 66.42968528 17.05540364 64.11328125 17.0604248 C59.25770302 17.06632447 54.40241904 17.05774151 49.546875 17.0390625 C43.31885354 17.01627309 37.09152155 17.0293936 30.86352539 17.05335236 C26.08002515 17.06779745 21.29668873 17.06321018 16.51318359 17.05284119 C14.21663329 17.05017035 11.92006817 17.05345613 9.62353516 17.0627594 C6.4152886 17.07290339 3.20816294 17.05745296 0 17.03515625 C-0.95181152 17.04325317 -1.90362305 17.0513501 -2.88427734 17.05969238 C-9.31445009 16.97678354 -9.31445009 16.97678354 -12.52539062 14.61022949 C-14.05062415 12.34993572 -14.47971773 11.21951292 -14.4375 8.51757812 C-14.45296875 7.52757812 -14.45296875 7.52757812 -14.46875 6.51757812 C-12.53367962 -0.76739273 -6.18858895 -0.05264544 0 0 Z " fill="#000000" transform="translate(93.9375,375.482421875)"/>
<path d="M0 0 C1.00853027 -0.00700928 2.01706055 -0.01401855 3.05615234 -0.02124023 C6.39188114 -0.03885406 9.72676248 -0.02718497 13.0625 -0.01367188 C15.37890791 -0.0163658 17.69531472 -0.02024739 20.01171875 -0.02526855 C24.86729698 -0.03116822 29.72258096 -0.02258526 34.578125 -0.00390625 C40.80614646 0.01888316 47.03347845 0.00576265 53.26147461 -0.01819611 C58.04497485 -0.0326412 62.82831127 -0.02805393 67.61181641 -0.01768494 C69.90836671 -0.0150141 72.20493183 -0.01829988 74.50146484 -0.02760315 C77.7097114 -0.03774714 80.91683706 -0.02229671 84.125 0 C85.55271729 -0.01214539 85.55271729 -0.01214539 87.00927734 -0.02453613 C93.43945009 0.05837271 93.43945009 0.05837271 96.65039062 2.42492676 C98.17562415 4.68522053 98.60471773 5.81564333 98.5625 8.51757812 C98.57796875 9.50757813 98.57796875 9.50757813 98.59375 10.51757812 C97.77143622 13.61334764 96.65975504 14.60332765 94.0625 16.51757812 C90.75626211 17.12830568 87.47912473 17.06368931 84.125 17.03515625 C83.11646973 17.04216553 82.10793945 17.0491748 81.06884766 17.05639648 C77.73311886 17.07401031 74.39823752 17.06234122 71.0625 17.04882812 C68.74609209 17.05152205 66.42968528 17.05540364 64.11328125 17.0604248 C59.25770302 17.06632447 54.40241904 17.05774151 49.546875 17.0390625 C43.31885354 17.01627309 37.09152155 17.0293936 30.86352539 17.05335236 C26.08002515 17.06779745 21.29668873 17.06321018 16.51318359 17.05284119 C14.21663329 17.05017035 11.92006817 17.05345613 9.62353516 17.0627594 C6.4152886 17.07290339 3.20816294 17.05745296 0 17.03515625 C-0.95181152 17.04325317 -1.90362305 17.0513501 -2.88427734 17.05969238 C-9.31445009 16.97678354 -9.31445009 16.97678354 -12.52539062 14.61022949 C-14.05062415 12.34993572 -14.47971773 11.21951292 -14.4375 8.51757812 C-14.45296875 7.52757812 -14.45296875 7.52757812 -14.46875 6.51757812 C-12.53367962 -0.76739273 -6.18858895 -0.05264544 0 0 Z " fill="#000000" transform="translate(93.9375,335.482421875)"/>
<path d="M0 0 C1.00853027 -0.00700928 2.01706055 -0.01401855 3.05615234 -0.02124023 C6.39188114 -0.03885406 9.72676248 -0.02718497 13.0625 -0.01367188 C15.37890791 -0.0163658 17.69531472 -0.02024739 20.01171875 -0.02526855 C24.86729698 -0.03116822 29.72258096 -0.02258526 34.578125 -0.00390625 C40.80614646 0.01888316 47.03347845 0.00576265 53.26147461 -0.01819611 C58.04497485 -0.0326412 62.82831127 -0.02805393 67.61181641 -0.01768494 C69.90836671 -0.0150141 72.20493183 -0.01829988 74.50146484 -0.02760315 C77.7097114 -0.03774714 80.91683706 -0.02229671 84.125 0 C85.55271729 -0.01214539 85.55271729 -0.01214539 87.00927734 -0.02453613 C93.43945009 0.05837271 93.43945009 0.05837271 96.65039062 2.42492676 C98.17562415 4.68522053 98.60471773 5.81564333 98.5625 8.51757812 C98.57796875 9.50757813 98.57796875 9.50757813 98.59375 10.51757812 C97.77143622 13.61334764 96.65975504 14.60332765 94.0625 16.51757812 C90.75626211 17.12830568 87.47912473 17.06368931 84.125 17.03515625 C83.11646973 17.04216553 82.10793945 17.0491748 81.06884766 17.05639648 C77.73311886 17.07401031 74.39823752 17.06234122 71.0625 17.04882812 C68.74609209 17.05152205 66.42968528 17.05540364 64.11328125 17.0604248 C59.25770302 17.06632447 54.40241904 17.05774151 49.546875 17.0390625 C43.31885354 17.01627309 37.09152155 17.0293936 30.86352539 17.05335236 C26.08002515 17.06779745 21.29668873 17.06321018 16.51318359 17.05284119 C14.21663329 17.05017035 11.92006817 17.05345613 9.62353516 17.0627594 C6.4152886 17.07290339 3.20816294 17.05745296 0 17.03515625 C-0.95181152 17.04325317 -1.90362305 17.0513501 -2.88427734 17.05969238 C-9.31445009 16.97678354 -9.31445009 16.97678354 -12.52539062 14.61022949 C-14.05062415 12.34993572 -14.47971773 11.21951292 -14.4375 8.51757812 C-14.45296875 7.52757812 -14.45296875 7.52757812 -14.46875 6.51757812 C-12.53367962 -0.76739273 -6.18858895 -0.05264544 0 0 Z " fill="#000000" transform="translate(93.9375,295.482421875)"/>
<path d="M0 0 C3.40400323 1.44574039 6.62956385 3.16838993 9.875 4.9375 C10.74125 5.39318359 11.6075 5.84886719 12.5 6.31835938 C18.86181196 9.72362393 18.86181196 9.72362393 20 12 C20.56872038 19.0521327 20.56872038 19.0521327 18.5 22.5 C15.00536738 24.59677957 11.92956376 24.59797709 8 24 C4.52809503 22.70492434 1.35640933 20.99136903 -1.875 19.1875 C-2.72835938 18.73568359 -3.58171875 18.28386719 -4.4609375 17.81835938 C-10.71333738 14.42999394 -10.71333738 14.42999394 -13 11 C-13.50835292 7.1026276 -13.32962183 5.49443274 -11.125 2.1875 C-7.51340606 -1.53031729 -4.797908 -1.28781273 0 0 Z " fill="#000000" transform="translate(268,192)"/>
<path d="M0 0 C3.38677089 2.45000447 4.78698584 3.86392446 5.5625 8 C4.84958811 11.80219673 3.66460667 13.1909011 1 16 C-1.47439064 17.67614276 -4.06884648 18.9993328 -6.75 20.3125 C-7.42804688 20.67150391 -8.10609375 21.03050781 -8.8046875 21.40039062 C-13.7737253 23.88018611 -17.45342788 24.49395438 -23 24 C-25.5 22.5 -25.5 22.5 -27 20 C-27.54686219 17.22011721 -27.72991469 14.74791413 -27 12 C-23.86788364 7.97186048 -19.66031159 5.98021076 -15.1875 3.75 C-14.15786133 3.20472656 -14.15786133 3.20472656 -13.10742188 2.6484375 C-8.59627044 0.37792419 -5.15765541 -0.59706848 0 0 Z " fill="#000000" transform="translate(283,120)"/>
<path d="M0 0 C1.051875 -0.00515625 2.10375 -0.0103125 3.1875 -0.015625 C4.280625 -0.00015625 5.37375 0.0153125 6.5 0.03125 C8.1396875 0.00804687 8.1396875 0.00804687 9.8125 -0.015625 C10.864375 -0.01046875 11.91625 -0.0053125 13 0 C14.43859375 0.00676758 14.43859375 0.00676758 15.90625 0.01367188 C19.21298564 0.673525 20.40908706 1.94238555 22.5 4.53125 C23.03125 6.53125 23.03125 6.53125 23 8.53125 C23.0103125 9.19125 23.020625 9.85125 23.03125 10.53125 C22.2561666 13.44921104 20.80895833 14.6243588 18.5 16.53125 C15.90625 17.04882812 15.90625 17.04882812 13 17.0625 C11.948125 17.06765625 10.89625 17.0728125 9.8125 17.078125 C8.719375 17.06265625 7.62625 17.0471875 6.5 17.03125 C4.8603125 17.05445313 4.8603125 17.05445313 3.1875 17.078125 C2.135625 17.07296875 1.08375 17.0678125 0 17.0625 C-0.9590625 17.05798828 -1.918125 17.05347656 -2.90625 17.04882812 C-6.21298564 16.388975 -7.40908706 15.12011445 -9.5 12.53125 C-10.03125 10.53125 -10.03125 10.53125 -10 8.53125 C-10.01546875 7.54125 -10.01546875 7.54125 -10.03125 6.53125 C-8.65240655 1.34030994 -4.94094259 0.02324368 0 0 Z " fill="#000000" transform="translate(265.5,159.46875)"/>
</svg>
